<?xml version="1.0" encoding="UTF-8"?>
<svg version="1.1" xmlns="http://www.w3.org/2000/svg" width="500" height="500">
<path d="M0 0 C2.78390955 0.00536117 5.56765782 0.00002396 8.3515625 -0.00634766 C22.69529943 -0.01458076 36.29709269 0.70002231 50.3515625 3.81787109 C51.57246582 4.08623779 52.79336914 4.35460449 54.05126953 4.63110352 C98.6833102 14.65646209 138.76299318 35.35624504 171.7890625 67.13037109 C172.72951416 68.02997559 172.72951416 68.02997559 173.68896484 68.94775391 C182.34993728 77.27553142 190.42343161 85.75580952 197.54638672 95.44335938 C198.76771211 97.10138658 200.01284166 98.73913608 201.26171875 100.37646484 C208.75831862 110.36352097 214.88589202 121.14408662 220.7890625 132.13037109 C221.40612061 133.27602539 221.40612061 133.27602539 222.03564453 134.44482422 C239.82348905 168.09467864 247.25243412 206.03784298 247.1015625 243.81787109 C247.09940735 244.79036804 247.0972522 245.76286499 247.09503174 246.76483154 C247.04521809 260.76937778 246.67076561 274.38224584 243.7890625 288.13037109 C243.49902344 289.6141626 243.49902344 289.6141626 243.203125 291.12792969 C235.5760262 329.71657691 219.33241179 365.38143503 194.7890625 396.13037109 C194.36898926 396.6661377 193.94891602 397.2019043 193.51611328 397.75390625 C181.45186188 413.06418776 167.2218006 427.52191142 151.41162109 438.95214844 C149.77506512 440.1405353 148.16644962 441.36054578 146.55859375 442.58740234 C109.52913081 470.41839387 60.90171086 488.07596522 14.43359375 488.33349609 C13.57762604 488.34055573 12.72165833 488.34761536 11.8397522 488.35488892 C-24.35663245 488.58561141 -24.35663245 488.58561141 -41.2109375 485.13037109 C-42.70584717 484.82437988 -42.70584717 484.82437988 -44.23095703 484.51220703 C-65.39939865 480.03407943 -85.73547499 473.58559337 -105.2109375 464.13037109 C-105.91669922 463.78780273 -106.62246094 463.44523437 -107.34960938 463.09228516 C-129.14920694 452.35263034 -148.72716982 437.95136886 -166.2109375 421.13037109 C-167.15138916 420.2307666 -167.15138916 420.2307666 -168.11083984 419.31298828 C-176.77181228 410.98521077 -184.84530661 402.50493267 -191.96826172 392.81738281 C-193.18958711 391.15935561 -194.43471666 389.52160611 -195.68359375 387.88427734 C-203.18019362 377.89722122 -209.30776702 367.11665557 -215.2109375 356.13037109 C-215.62230957 355.36660156 -216.03368164 354.60283203 -216.45751953 353.81591797 C-234.24536405 320.16606354 -241.67430912 282.22289921 -241.5234375 244.44287109 C-241.52128235 243.47037415 -241.5191272 242.4978772 -241.51690674 241.49591064 C-241.46710522 227.49477496 -241.10522441 213.87368315 -238.2109375 200.13037109 C-238.01226074 199.13054199 -237.81358398 198.13071289 -237.60888672 197.10058594 C-229.88882238 158.73157701 -214.20137378 122.48165903 -189.2109375 92.13037109 C-188.43234375 91.14939453 -187.65375 90.16841797 -186.8515625 89.15771484 C-174.87170074 74.44331942 -161.23525928 60.44355927 -145.83349609 49.30859375 C-144.19694012 48.12020688 -142.58832462 46.9001964 -140.98046875 45.67333984 C-100.56965679 15.30095861 -50.1941283 -0.11488093 0 0 Z " fill="#EC0080" transform="translate(247.2109375,5.86962890625)"/>
<path d="M0 0 C1.98703064 1.47555423 3.70420263 2.97566105 5.421875 4.75390625 C5.96070313 5.26050781 6.49953125 5.76710938 7.0546875 6.2890625 C10.55602875 10.04049955 10.9383578 15.40186186 10.7890625 20.3203125 C9.92851399 26.02373509 7.57143592 30.89421607 3.19140625 34.68359375 C-0.00164092 36.86090814 -2.90554939 38.52971438 -6.578125 39.75390625 C-7.40393192 42.36491341 -8.0312077 44.83266816 -8.578125 47.50390625 C-8.82804199 48.64460571 -8.82804199 48.64460571 -9.08300781 49.80834961 C-9.42421197 51.36643917 -9.7604578 52.92562262 -10.09179688 54.48583984 C-10.79655262 57.77257724 -11.56305132 61.0431901 -12.328125 64.31640625 C-12.74517916 66.12881713 -13.162009 67.94127975 -13.578125 69.75390625 C-13.01867187 69.86347656 -12.45921875 69.97304687 -11.8828125 70.0859375 C0.55590215 72.54568332 12.91456054 75.30402366 25.24853516 78.23779297 C28.80493873 79.08234893 32.36349472 79.91772584 35.921875 80.75390625 C37.33855234 81.08719421 38.755219 81.42052757 40.171875 81.75390625 C40.873125 81.91890625 41.574375 82.08390625 42.296875 82.25390625 C61.421875 86.75390625 80.546875 91.25390625 99.671875 95.75390625 C100.7232666 96.0012854 100.7232666 96.0012854 101.79589844 96.25366211 C103.21582885 96.58777297 104.63575069 96.92192024 106.05566406 97.25610352 C109.54732695 98.07783591 113.03912516 98.89898285 116.53125 99.71875 C125.22981407 101.76159459 133.92358534 103.82392965 142.61523438 105.89599609 C150.193883 107.70182427 157.77668882 109.48954534 165.36132812 111.27001953 C168.88180099 112.09674669 172.40181047 112.92544255 175.921875 113.75390625 C177.33853953 114.08724865 178.7552062 114.42058199 180.171875 114.75390625 C194.33854167 118.08723958 208.50520833 121.42057292 222.671875 124.75390625 C223.37401123 124.91898682 224.07614746 125.08406738 224.79956055 125.25415039 C226.20750672 125.58568908 227.61522454 125.91819907 229.02270508 126.25170898 C232.69645885 127.12085602 236.37339161 127.96970047 240.05859375 128.7890625 C241.20134766 129.04719727 241.20134766 129.04719727 242.3671875 129.31054688 C243.81499341 129.63718601 245.2641479 129.95792952 246.71484375 130.27148438 C254.57235719 132.05937562 260.79399829 135.25007063 265.671875 141.75390625 C270.5508564 150.11787437 268.49579915 159.77462572 266.421875 168.75390625 C266.11423507 170.16891304 265.80839855 171.58431255 265.50390625 173 C262.68175386 186.03663867 262.68175386 186.03663867 260.921875 192.19140625 C259.24681103 198.06786016 258.06318243 204.04213246 256.8671875 210.03100586 C255.97989268 214.40300683 254.86187801 218.52427399 253.421875 222.75390625 C253.09549218 224.43503681 252.80334223 226.12319916 252.546875 227.81640625 C251.61514251 233.25890714 250.05451356 238.36769479 248.3515625 243.61328125 C247.51214579 246.44895785 246.9855043 249.14817865 246.546875 252.06640625 C245.16674614 259.34452168 240.91992916 263.92101627 235.046875 268.19140625 C230.79232176 270.85682246 227.40561104 271.57267948 222.421875 271.75390625 C222.00339836 273.3992803 221.58727987 275.04525399 221.171875 276.69140625 C220.89472656 277.77679688 220.61757813 278.8621875 220.33203125 279.98046875 C219.68000454 282.68372111 219.08604807 285.36542589 218.54296875 288.08984375 C215.58946493 302.50489354 215.58946493 302.50489354 209.421875 307.75390625 C199.9092625 310.92477708 187.96087363 306.75718478 178.52197266 304.29345703 C176.4879101 303.77087179 174.44770469 303.28862327 172.40234375 302.8125 C162.20280975 300.25994646 162.20280975 300.25994646 159.109375 296.62890625 C154.51055871 288.7938859 156.69765972 281.51374128 158.859375 273.12890625 C159.31821244 271.30383856 159.77529207 269.47832789 160.23046875 267.65234375 C160.54733643 266.38342285 160.54733643 266.38342285 160.87060547 265.08886719 C161.52237222 262.32823953 162.01621371 259.56089587 162.421875 256.75390625 C161.390625 256.65078125 160.359375 256.54765625 159.296875 256.44140625 C152.923338 255.63773784 146.68114431 254.17337866 140.421875 252.75390625 C139.69597168 252.58955078 138.97006836 252.42519531 138.22216797 252.25585938 C135.95420896 251.73941758 133.68777425 251.21680717 131.421875 250.69140625 C130.71619385 250.52922607 130.0105127 250.3670459 129.28344727 250.19995117 C125.2432852 249.25116535 121.3556027 248.06514882 117.421875 246.75390625 C115.8247975 246.42563257 114.21978355 246.13386592 112.609375 245.87890625 C105.61247716 244.66410165 98.73389356 242.99395806 91.83300781 241.33349609 C88.42399451 240.51403502 85.01296742 239.70309745 81.60205078 238.89160156 C79.81127672 238.46552196 78.02058692 238.03908809 76.22998047 237.61230469 C68.65092227 235.80598329 61.0675599 234.01838424 53.48242188 232.23779297 C49.96194901 231.41106581 46.44193953 230.58236995 42.921875 229.75390625 C41.50521047 229.42056385 40.0885438 229.08723051 38.671875 228.75390625 C30.171875 226.75390625 21.671875 224.75390625 13.171875 222.75390625 C12.46973877 222.58874512 11.76760254 222.42358398 11.04418945 222.25341797 C9.63638905 221.92207555 8.22867325 221.59037347 6.82104492 221.25830078 C3.14435894 220.39144332 -0.533863 219.53204403 -4.21484375 218.68359375 C-5.35759766 218.41869141 -5.35759766 218.41869141 -6.5234375 218.1484375 C-7.9721169 217.81276788 -9.42130433 217.47927998 -10.87109375 217.1484375 C-14.85816306 216.22175537 -18.71654033 215.11116618 -22.578125 213.75390625 C-22.94164062 215.58501953 -22.94164062 215.58501953 -23.3125 217.453125 C-28.76818356 244.48931263 -28.76818356 244.48931263 -33.015625 249.06640625 C-45.77118888 255.10851545 -63.93289052 248.12961539 -76.45141602 243.74829102 C-84.73764678 240.57036931 -84.73764678 240.57036931 -87.578125 235.75390625 C-89.94880956 228.64185257 -87.92388049 223.23624512 -85.66796875 216.33203125 C-83.90881579 210.55646095 -82.74989214 204.6748811 -81.578125 198.75390625 C-82.33738281 198.49222656 -83.09664062 198.23054687 -83.87890625 197.9609375 C-86.63402961 196.72890694 -87.86875607 195.73493946 -89.765625 193.44140625 C-90.25417969 192.86777344 -90.74273437 192.29414063 -91.24609375 191.703125 C-96.17495027 184.49051679 -95.49990085 175.00870142 -94.04296875 166.703125 C-93.28291582 163.70029292 -92.43050447 160.73179367 -91.578125 157.75390625 C-90.90328467 155.03141955 -90.27219931 152.29920945 -89.640625 149.56640625 C-89.29974927 148.11191584 -88.95860051 146.65748939 -88.6171875 145.203125 C-87.9212357 142.22730851 -87.22924855 139.25059599 -86.5390625 136.2734375 C-85.10636995 130.1136075 -83.67391254 123.96651646 -81.953125 117.87890625 C-80.67731047 113.3480406 -79.83433187 108.80887049 -79.04296875 104.171875 C-78.48354752 101.26194441 -77.51461401 98.56337328 -76.578125 95.75390625 C-76.27056786 94.04836211 -75.98092181 92.33954974 -75.703125 90.62890625 C-73.78423305 79.79454708 -71.19756103 70.48207484 -61.953125 63.87890625 C-51.18619607 58.77878202 -39.37035987 62.72070599 -28.578125 65.75390625 C-28.44857422 64.78517578 -28.44857422 64.78517578 -28.31640625 63.796875 C-26.84232547 53.91106717 -24.21683928 44.38219194 -21.578125 34.75390625 C-23.063125 34.25890625 -23.063125 34.25890625 -24.578125 33.75390625 C-29.37666717 28.18489393 -30.42719013 22.09107802 -30.125 14.9140625 C-28.98624449 8.33368246 -25.53561117 4.42592568 -20.578125 0.19140625 C-14.53104445 -2.70418911 -6.00671231 -2.90324428 0 0 Z " fill="#EC0281" transform="translate(163.578125,96.24609375)"/>
<path d="M0 0 C1.98703064 1.47555423 3.70420263 2.97566105 5.421875 4.75390625 C5.96070313 5.26050781 6.49953125 5.76710938 7.0546875 6.2890625 C10.55602875 10.04049955 10.9383578 15.40186186 10.7890625 20.3203125 C9.92851399 26.02373509 7.57143592 30.89421607 3.19140625 34.68359375 C-0.00164092 36.86090814 -2.90554939 38.52971438 -6.578125 39.75390625 C-7.40393192 42.36491341 -8.0312077 44.83266816 -8.578125 47.50390625 C-8.82804199 48.64460571 -8.82804199 48.64460571 -9.08300781 49.80834961 C-9.42421197 51.36643917 -9.7604578 52.92562262 -10.09179688 54.48583984 C-10.79655262 57.77257724 -11.56305132 61.0431901 -12.328125 64.31640625 C-12.74517916 66.12881713 -13.162009 67.94127975 -13.578125 69.75390625 C-13.01867187 69.86347656 -12.45921875 69.97304687 -11.8828125 70.0859375 C0.55590215 72.54568332 12.91456054 75.30402366 25.24853516 78.23779297 C28.80493873 79.08234893 32.36349472 79.91772584 35.921875 80.75390625 C37.33855234 81.08719421 38.755219 81.42052757 40.171875 81.75390625 C40.873125 81.91890625 41.574375 82.08390625 42.296875 82.25390625 C61.421875 86.75390625 80.546875 91.25390625 99.671875 95.75390625 C100.7232666 96.0012854 100.7232666 96.0012854 101.79589844 96.25366211 C103.21582885 96.58777297 104.63575069 96.92192024 106.05566406 97.25610352 C109.54732695 98.07783591 113.03912516 98.89898285 116.53125 99.71875 C125.22981407 101.76159459 133.92358534 103.82392965 142.61523438 105.89599609 C150.193883 107.70182427 157.77668882 109.48954534 165.36132812 111.27001953 C168.88180099 112.09674669 172.40181047 112.92544255 175.921875 113.75390625 C177.33853953 114.08724865 178.7552062 114.42058199 180.171875 114.75390625 C194.33854167 118.08723958 208.50520833 121.42057292 222.671875 124.75390625 C223.37401123 124.91898682 224.07614746 125.08406738 224.79956055 125.25415039 C226.20750672 125.58568908 227.61522454 125.91819907 229.02270508 126.25170898 C232.69645885 127.12085602 236.37339161 127.96970047 240.05859375 128.7890625 C241.20134766 129.04719727 241.20134766 129.04719727 242.3671875 129.31054688 C243.81499341 129.63718601 245.2641479 129.95792952 246.71484375 130.27148438 C254.57235719 132.05937562 260.79399829 135.25007063 265.671875 141.75390625 C270.5508564 150.11787437 268.49579915 159.77462572 266.421875 168.75390625 C266.11423507 170.16891304 265.80839855 171.58431255 265.50390625 173 C262.68175386 186.03663867 262.68175386 186.03663867 260.921875 192.19140625 C259.24681103 198.06786016 258.06318243 204.04213246 256.8671875 210.03100586 C255.97989268 214.40300683 254.86187801 218.52427399 253.421875 222.75390625 C253.09549218 224.43503681 252.80334223 226.12319916 252.546875 227.81640625 C251.61514251 233.25890714 250.05451356 238.36769479 248.3515625 243.61328125 C247.51214579 246.44895785 246.9855043 249.14817865 246.546875 252.06640625 C245.16674614 259.34452168 240.91992916 263.92101627 235.046875 268.19140625 C230.79232176 270.85682246 227.40561104 271.57267948 222.421875 271.75390625 C222.00339836 273.3992803 221.58727987 275.04525399 221.171875 276.69140625 C220.89472656 277.77679688 220.61757813 278.8621875 220.33203125 279.98046875 C219.68000454 282.68372111 219.08604807 285.36542589 218.54296875 288.08984375 C215.58946493 302.50489354 215.58946493 302.50489354 209.421875 307.75390625 C199.9092625 310.92477708 187.96087363 306.75718478 178.52197266 304.29345703 C176.4879101 303.77087179 174.44770469 303.28862327 172.40234375 302.8125 C162.20280975 300.25994646 162.20280975 300.25994646 159.109375 296.62890625 C154.51055871 288.7938859 156.69765972 281.51374128 158.859375 273.12890625 C159.31821244 271.30383856 159.77529207 269.47832789 160.23046875 267.65234375 C160.54733643 266.38342285 160.54733643 266.38342285 160.87060547 265.08886719 C161.52237222 262.32823953 162.01621371 259.56089587 162.421875 256.75390625 C161.390625 256.65078125 160.359375 256.54765625 159.296875 256.44140625 C152.923338 255.63773784 146.68114431 254.17337866 140.421875 252.75390625 C139.69597168 252.58955078 138.97006836 252.42519531 138.22216797 252.25585938 C135.95420896 251.73941758 133.68777425 251.21680717 131.421875 250.69140625 C130.71619385 250.52922607 130.0105127 250.3670459 129.28344727 250.19995117 C125.2432852 249.25116535 121.3556027 248.06514882 117.421875 246.75390625 C115.8247975 246.42563257 114.21978355 246.13386592 112.609375 245.87890625 C105.61247716 244.66410165 98.73389356 242.99395806 91.83300781 241.33349609 C88.42399451 240.51403502 85.01296742 239.70309745 81.60205078 238.89160156 C79.81127672 238.46552196 78.02058692 238.03908809 76.22998047 237.61230469 C68.65092227 235.80598329 61.0675599 234.01838424 53.48242188 232.23779297 C49.96194901 231.41106581 46.44193953 230.58236995 42.921875 229.75390625 C41.50521047 229.42056385 40.0885438 229.08723051 38.671875 228.75390625 C30.171875 226.75390625 21.671875 224.75390625 13.171875 222.75390625 C12.46973877 222.58874512 11.76760254 222.42358398 11.04418945 222.25341797 C9.63638905 221.92207555 8.22867325 221.59037347 6.82104492 221.25830078 C3.14435894 220.39144332 -0.533863 219.53204403 -4.21484375 218.68359375 C-5.35759766 218.41869141 -5.35759766 218.41869141 -6.5234375 218.1484375 C-7.9721169 217.81276788 -9.42130433 217.47927998 -10.87109375 217.1484375 C-14.85816306 216.22175537 -18.71654033 215.11116618 -22.578125 213.75390625 C-22.94164062 215.58501953 -22.94164062 215.58501953 -23.3125 217.453125 C-28.76818356 244.48931263 -28.76818356 244.48931263 -33.015625 249.06640625 C-45.77118888 255.10851545 -63.93289052 248.12961539 -76.45141602 243.74829102 C-84.73764678 240.57036931 -84.73764678 240.57036931 -87.578125 235.75390625 C-89.94880956 228.64185257 -87.92388049 223.23624512 -85.66796875 216.33203125 C-83.90881579 210.55646095 -82.74989214 204.6748811 -81.578125 198.75390625 C-82.33738281 198.49222656 -83.09664062 198.23054687 -83.87890625 197.9609375 C-86.63402961 196.72890694 -87.86875607 195.73493946 -89.765625 193.44140625 C-90.25417969 192.86777344 -90.74273437 192.29414063 -91.24609375 191.703125 C-96.17495027 184.49051679 -95.49990085 175.00870142 -94.04296875 166.703125 C-93.28291582 163.70029292 -92.43050447 160.73179367 -91.578125 157.75390625 C-90.90328467 155.03141955 -90.27219931 152.29920945 -89.640625 149.56640625 C-89.29974927 148.11191584 -88.95860051 146.65748939 -88.6171875 145.203125 C-87.9212357 142.22730851 -87.22924855 139.25059599 -86.5390625 136.2734375 C-85.10636995 130.1136075 -83.67391254 123.96651646 -81.953125 117.87890625 C-80.67731047 113.3480406 -79.83433187 108.80887049 -79.04296875 104.171875 C-78.48354752 101.26194441 -77.51461401 98.56337328 -76.578125 95.75390625 C-76.27056786 94.04836211 -75.98092181 92.33954974 -75.703125 90.62890625 C-73.78423305 79.79454708 -71.19756103 70.48207484 -61.953125 63.87890625 C-51.18619607 58.77878202 -39.37035987 62.72070599 -28.578125 65.75390625 C-28.44857422 64.78517578 -28.44857422 64.78517578 -28.31640625 63.796875 C-26.84232547 53.91106717 -24.21683928 44.38219194 -21.578125 34.75390625 C-23.063125 34.25890625 -23.063125 34.25890625 -24.578125 33.75390625 C-29.37666717 28.18489393 -30.42719013 22.09107802 -30.125 14.9140625 C-28.98624449 8.33368246 -25.53561117 4.42592568 -20.578125 0.19140625 C-14.53104445 -2.70418911 -6.00671231 -2.90324428 0 0 Z M-55.578125 80.75390625 C-56.52813788 82.82149254 -56.52813788 82.82149254 -57.140625 85.25390625 C-57.36878906 86.04796875 -57.59695312 86.84203125 -57.83203125 87.66015625 C-58.42771481 90.13021582 -58.94131951 92.58099306 -59.421875 95.07421875 C-60.87805113 102.48121406 -62.72232334 109.79811885 -64.515625 117.12890625 C-64.8667146 118.57157124 -65.21762704 120.01427936 -65.56835938 121.45703125 C-67.08842233 127.70096434 -68.62264785 133.93997767 -70.20703125 140.16796875 C-71.30424652 144.52647502 -72.2179875 148.89451189 -73.06884766 153.30664062 C-73.60060285 155.86192059 -74.23263368 158.37203611 -74.90234375 160.89453125 C-75.12599609 161.73757813 -75.34964844 162.580625 -75.58007812 163.44921875 C-76.0418117 165.16986695 -76.51071085 166.8886064 -76.98632812 168.60546875 C-78.21774471 173.30001878 -79.04188667 176.96881735 -77.578125 181.75390625 C-74.9056421 184.42638915 -72.64895808 184.66027705 -68.98046875 185.55859375 C-68.31882721 185.7225766 -67.65718567 185.88655945 -66.97549438 186.05551147 C-64.82383483 186.58687898 -62.66985148 187.10805252 -60.515625 187.62890625 C-59.03820093 187.99133592 -57.56090597 188.35429229 -56.08374023 188.71777344 C-46.26370929 191.12795738 -36.43047372 193.47949206 -26.578125 195.75390625 C-23.74415552 196.41787633 -20.91115788 197.0859528 -18.078125 197.75390625 C-16.66147538 198.08731203 -15.24480877 198.42064562 -13.828125 198.75390625 C96.671875 224.75390625 96.671875 224.75390625 98.79760742 225.25415039 C100.21178999 225.58685143 101.62601516 225.91937148 103.0402832 226.25170898 C106.62033063 227.09322422 110.19954261 227.93804379 113.77734375 228.7890625 C115.22130462 229.13171928 116.66531475 229.47416854 118.109375 229.81640625 C119.16850098 230.06777344 119.16850098 230.06777344 120.24902344 230.32421875 C124.70970337 231.37476368 129.18201109 232.33405595 133.671875 233.25390625 C139.29569201 234.43516462 144.68534378 236.04080934 150.15625 237.78515625 C154.62293702 239.11020216 159.1373076 240.04195169 163.69921875 240.9765625 C167.72771996 241.81777104 171.73051434 242.74115178 175.734375 243.69140625 C176.4469043 243.86027344 177.15943359 244.02914062 177.89355469 244.203125 C179.34530599 244.54763048 180.79696584 244.8925215 182.24853516 245.23779297 C184.39295691 245.74703893 186.53809283 246.25313385 188.68359375 246.7578125 C189.38387695 246.9225708 190.08416016 247.0873291 190.80566406 247.25708008 C192.21233492 247.58732641 193.61923529 247.91659669 195.02636719 248.24487305 C198.68762035 249.10088793 202.3412963 249.97948931 205.98828125 250.89453125 C206.74109375 251.08015625 207.49390625 251.26578125 208.26953125 251.45703125 C209.69458373 251.80889606 211.11794555 252.16771917 212.5390625 252.53515625 C217.33998637 253.7093467 221.52046383 254.14809382 226.421875 253.75390625 C229.68162438 251.44898875 230.13176246 248.76751539 230.921875 244.9765625 C231.293125 243.2450293 231.293125 243.2450293 231.671875 241.47851562 C232.043125 239.66577148 232.043125 239.66577148 232.421875 237.81640625 C232.9202978 235.45279186 233.42028802 233.08950743 233.921875 230.7265625 C234.17050293 229.5511792 234.41913086 228.3757959 234.67529297 227.16479492 C235.57346995 223.06131862 236.58129357 218.99338543 237.61816406 214.9230957 C238.53154894 211.32144044 239.41340767 207.71252554 240.2890625 204.1015625 C240.45094055 203.43468414 240.6128186 202.76780579 240.77960205 202.08071899 C241.64023093 198.53240574 242.49832298 194.98348227 243.35546875 191.43432617 C243.61822601 190.3463398 243.61822601 190.3463398 243.8862915 189.2363739 C244.23645256 187.78629527 244.58651054 186.33619175 244.9364624 184.88606262 C245.9632566 180.63570407 247.00350209 176.38894025 248.0546875 172.14453125 C248.51042101 170.28515731 248.96615054 168.4257824 249.421875 166.56640625 C249.62925293 165.74342041 249.83663086 164.92043457 250.05029297 164.07250977 C251.58230731 157.97302401 251.58230731 157.97302401 251.421875 151.75390625 C248.06892528 148.12775322 244.94735618 147.11394551 240.171875 146.25390625 C238.93050781 146.01414062 237.68914062 145.774375 236.41015625 145.52734375 C235.42909912 145.34123535 235.42909912 145.34123535 234.42822266 145.15136719 C231.05115785 144.48236481 227.70728518 143.67938225 224.359375 142.87890625 C223.65272705 142.71116699 222.9460791 142.54342773 222.21801758 142.37060547 C220.7298285 142.01724098 219.24179514 141.66322012 217.75390625 141.30859375 C215.34193519 140.73489209 212.92888102 140.1659269 210.515625 139.59765625 C202.25160544 137.64661629 194.00068705 135.65653422 185.76977539 133.56982422 C175.05543217 130.85450327 164.30967981 128.36866628 153.51171875 126.00854492 C143.92820914 123.9000901 134.41754604 121.54695127 124.90625 119.13671875 C115.02566736 116.63386733 105.12291485 114.23938602 95.11328125 112.30859375 C89.26015219 111.10228849 83.4550813 109.66686025 77.64208984 108.28173828 C74.84145171 107.6159169 72.03898816 106.95803041 69.23632812 106.30078125 C66.39223674 105.63348261 63.54886259 104.96315831 60.70556641 104.29248047 C59.14283127 103.92393293 57.58000112 103.55578811 56.01708984 103.18798828 C46.91704791 101.04459735 37.82894514 98.86623486 28.76635742 96.5690918 C17.78033129 93.78442366 6.76407251 91.21833211 -4.31884766 88.84594727 C-9.17583673 87.79390649 -13.95670715 86.68913157 -18.703125 85.2109375 C-23.80725796 83.62507281 -28.94977022 82.58894916 -34.203125 81.62890625 C-35.09257812 81.46003906 -35.98203125 81.29117188 -36.8984375 81.1171875 C-39.45494074 80.63972292 -42.01413594 80.18922368 -44.578125 79.75390625 C-45.72812988 79.5513623 -45.72812988 79.5513623 -46.90136719 79.34472656 C-51.49230567 78.59511053 -51.49230567 78.59511053 -55.578125 80.75390625 Z " fill="#FEFAFC" transform="translate(163.578125,96.24609375)"/>
<path d="M0 0 C3.76737684 2.64196736 5.57984051 5.06080238 6.55859375 9.578125 C6.99625513 15.97334031 5.39385152 20.06868715 1.703125 25.22265625 C-0.08042561 27.0839304 -1.6375516 28.00879882 -4 29 C-3.71125 29.5775 -3.4225 30.155 -3.125 30.75 C-2.75375 31.4925 -2.3825 32.235 -2 33 C-1.65324219 33.59554687 -1.30648437 34.19109375 -0.94921875 34.8046875 C1.26439998 39.92425015 0.60304017 46.11993357 -1.0625 51.3125 C-4.21134416 55.68025158 -7.84070184 59.28023395 -13 61 C-23.08048337 61.950989 -33.71909867 61.18108105 -41.8515625 54.47265625 C-43.1875 52.9375 -43.1875 52.9375 -45 50 C-45.433125 49.38125 -45.86625 48.7625 -46.3125 48.125 C-47.95385331 43.05172614 -47.53907704 38.58248647 -45.375 33.8125 C-42.90894279 29.33836764 -39.59988363 26.29994182 -35 24 C-36.39759905 20.45481116 -36.39759905 20.45481116 -38 17 C-38.71910796 9.89144099 -38.51392888 4.67134654 -34 -1 C-24.42957715 -9.11405416 -10.0908071 -5.53094448 0 0 Z " fill="#FEF9FC" transform="translate(345,252)"/>
<path d="M0 0 C3.81271201 1.72530543 6.511529 3.56745262 9.25 6.75 C11.00012215 12.00036646 11.05224421 17.29473938 10.25 22.75 C8.42773191 26.0427847 6.32782657 28.5684998 3.25 30.75 C2.26 30.75 1.27 30.75 0.25 30.75 C0.79140625 31.53310547 0.79140625 31.53310547 1.34375 32.33203125 C5.17770103 38.41310358 6.68060655 43.59696723 5.25 50.75 C2.89117666 56.36828832 -0.65315018 60.80980122 -6.3671875 63.15625 C-16.32106822 65.63656126 -25.86878042 63.64998322 -34.75 58.75 C-38.53780288 55.61333514 -40.8427219 52.62065084 -41.75 47.75 C-42.06907281 42.11304694 -42.14897777 36.4390305 -38.19921875 32.01171875 C-35.15210509 29.27779878 -32.82914576 27.52270162 -28.75 26.75 C-29.41 26.04875 -30.07 25.3475 -30.75 24.625 C-34.23206523 19.37685133 -33.68089316 12.7313359 -32.75 6.75 C-26.64293872 -5.32622118 -10.95345312 -4.38407914 0 0 Z " fill="#FEF9FC" transform="translate(287.75,237.25)"/>
<path d="M0 0 C1.98828125 0.171875 1.98828125 0.171875 4.3125 0.75 C5.11171875 0.94851562 5.9109375 1.14703125 6.734375 1.3515625 C9.23928374 2.06848466 11.62498519 2.92741267 14 4 C11.73420422 17.42956038 1.18570382 30.50550792 -7 41 C-3.37 41.66 0.26 42.32 4 43 C4.12375 41.535625 4.2475 40.07125 4.375 38.5625 C4.5859375 36.06640625 4.5859375 36.06640625 5 34 C7.55615166 32.72192417 9.10354243 33.00031211 11.9375 33.25 C12.81277344 33.31703125 13.68804687 33.3840625 14.58984375 33.453125 C17.39306298 34.08918771 18.45227611 34.57167459 20 37 C19.85546875 39.48046875 19.85546875 39.48046875 19.1875 42.1875 C18.97480469 43.08855469 18.76210937 43.98960937 18.54296875 44.91796875 C18.36378906 45.60503906 18.18460938 46.29210937 18 47 C19.32 47.33 20.64 47.66 22 48 C22.05422947 49.4370809 22.09289723 50.87475462 22.125 52.3125 C22.14820313 53.11300781 22.17140625 53.91351563 22.1953125 54.73828125 C22 57 22 57 20 60 C16.875 60.1875 16.875 60.1875 14 60 C13.67 62.64 13.34 65.28 13 68 C7.78832125 69.84930536 3.95116297 67.84744887 -1 66 C-1 62.7 -1 59.4 -1 56 C-1.90621094 55.81824219 -2.81242187 55.63648438 -3.74609375 55.44921875 C-10.68514432 54.01735117 -17.33711314 52.41242455 -24 50 C-25.01546575 43.34305785 -23.84739082 40.18785488 -19.9375 34.6875 C-18.69696472 33.01089479 -17.45048275 31.3388969 -16.20166016 29.66845703 C-11.61189701 23.2957546 -7.86334849 16.30153864 -5 9 C-2.29209622 2.29209622 -2.29209622 2.29209622 0 0 Z " fill="#FEF8FB" transform="translate(166,209)"/>
<path d="M0 0 C13.55602222 1.16862261 26.79298687 4.85014336 40 8 C41.26380845 12.29694872 40.87629303 14.93831363 39 19 C36.8984375 21.01953125 36.8984375 21.01953125 34.375 22.8125 C21.14892102 32.8322568 13.2711921 45.73563483 10.58984375 62.125 C9.82466481 64.55735689 9.12672141 65.57291897 7 67 C4.3359375 66.890625 4.3359375 66.890625 1.375 66.25 C0.39273438 66.04890625 -0.58953125 65.8478125 -1.6015625 65.640625 C-4 65 -4 65 -5 64 C-4.89422478 50.67232209 0.7244558 37.9808146 10.125 28.5625 C11.40835681 27.36602421 12.69923888 26.17753112 14 25 C14.928125 24.071875 15.85625 23.14375 16.8125 22.1875 C18.54166667 20.45833333 20.27083333 18.72916667 22 17 C21.10539062 16.90203125 20.21078125 16.8040625 19.2890625 16.703125 C11.62789812 15.75568889 4.98484263 14.31538614 -2 11 C-2.25 3.375 -2.25 3.375 0 0 Z " fill="#FEF7FB" transform="translate(207,220)"/>
<path d="M0 0 C1.48009643 0.97776067 2.95905144 1.9572494 4.4375 2.9375 C5.67306641 3.75541016 5.67306641 3.75541016 6.93359375 4.58984375 C9 6 9 6 10 7 C10.26588635 10.52299415 10.36150232 13.17067114 8.9375 16.4375 C7 18 7 18 3.6875 18.4375 C-0.34525509 17.95903753 -2.72412276 17.41790939 -6 15 C-7.22353109 11.11348949 -7.4361675 9.0100721 -5.8125 5.25 C-4.03623579 3.04498236 -2.28219003 1.64431083 0 0 Z " fill="#EC0984" transform="translate(268,270)"/>
<path d="M0 0 C4.64274654 1.50206506 7.6171201 3.53844847 11 7 C11.62061872 10.37892412 11.31297199 12.20713763 10.0625 15.375 C7.16101811 17.66101604 4.84477539 17.50515475 1.23046875 17.3046875 C-2.03560922 16.85853324 -3.70923748 16.43855366 -6 14 C-6.79239434 10.83651798 -6.81358717 8.16026035 -6 5 C-4.18369754 2.72307904 -2.49082314 1.60865661 0 0 Z " fill="#EC0A85" transform="translate(320,283)"/>
<path d="M0 0 C2.9375 1.1875 2.9375 1.1875 5 3 C5.625 5.875 5.625 5.875 5 9 C2.6875 11.875 2.6875 11.875 0 14 C-3.68014865 14 -4.44245023 13.15754252 -7.1875 10.8125 C-7.90292969 10.22082031 -8.61835938 9.62914062 -9.35546875 9.01953125 C-11 7 -11 7 -11.3359375 4.37890625 C-11 2 -11 2 -9.4375 0.125 C-5.92580247 -1.49578347 -3.71050064 -0.91135103 0 0 Z " fill="#EC0D86" transform="translate(279,248)"/>
<path d="M0 0 C3.81446692 0.12506449 6.35190854 0.56552078 9.1875 3.3125 C9.8125 6.6875 9.8125 6.6875 9.1875 10.3125 C6.6875 13.25 6.6875 13.25 4.1875 15.3125 C-4.37347561 11.19054878 -4.37347561 11.19054878 -5.8125 8.3125 C-6 5.3125 -6 5.3125 -5.8125 2.3125 C-3.8125 0.3125 -3.8125 0.3125 0 0 Z " fill="#EC0A85" transform="translate(326.8125,259.6875)"/>
</svg>
